<?xml version="1.0" encoding="UTF-8"?>
<svg id="Layer_2" data-name="Layer 2" xmlns="http://www.w3.org/2000/svg" viewBox="0 0 1525.53 1525.53">
  <defs>
    <style>
      .cls-1, .cls-2 {
        stroke-width: 0px;
      }

      .cls-2 {
        fill: #fff;
      }

      .cls-3 {
        fill: none;
        stroke: #fff;
        stroke-miterlimit: 10;
        stroke-width: 44px;
      }
    </style>
  </defs>
  <g id="Layer_1-2" data-name="Layer 1">
    <g>
      <path class="cls-1" d="M762.77,1525.03c-102.91,0-202.73-20.15-296.71-59.9-90.77-38.39-172.29-93.35-242.3-163.36-70.01-70-124.97-151.53-163.36-242.29C20.65,965.5.5,865.67.5,762.77s20.15-202.73,59.9-296.71c38.39-90.77,93.35-172.29,163.36-242.3s151.52-124.97,242.3-163.36C560.03,20.65,659.86.5,762.77.5s202.73,20.15,296.71,59.9c90.77,38.39,172.29,93.35,242.29,163.36,70.01,70.01,124.97,151.52,163.36,242.3,39.75,93.98,59.9,193.8,59.9,296.71s-20.15,202.73-59.9,296.71c-38.39,90.77-93.35,172.29-163.36,242.29-70,70.01-151.53,124.97-242.29,163.36-93.98,39.75-193.8,59.9-296.71,59.9Z"/>
      <path class="cls-2" d="M762.77,1c102.84,0,202.6,20.14,296.51,59.86,45.14,19.09,88.67,42.72,129.4,70.23,40.34,27.25,78.27,58.55,112.74,93.02,34.47,34.47,65.77,72.4,93.02,112.74,27.51,40.72,51.14,84.26,70.23,129.4,39.72,93.91,59.86,193.68,59.86,296.51s-20.14,202.6-59.86,296.51c-19.09,45.14-42.72,88.67-70.23,129.4-27.25,40.34-58.55,78.27-93.02,112.74-34.47,34.47-72.4,65.77-112.74,93.02-40.72,27.51-84.26,51.14-129.4,70.23-93.91,39.72-193.68,59.86-296.51,59.86s-202.6-20.14-296.51-59.86c-45.14-19.09-88.67-42.72-129.4-70.23-40.34-27.25-78.27-58.55-112.74-93.02-34.47-34.47-65.77-72.4-93.02-112.74-27.51-40.72-51.14-84.26-70.23-129.4C21.14,965.37,1,865.6,1,762.77s20.14-202.6,59.86-296.51c19.09-45.14,42.72-88.67,70.23-129.4,27.25-40.34,58.55-78.27,93.02-112.74,34.47-34.47,72.4-65.77,112.74-93.02,40.72-27.51,84.26-51.14,129.4-70.23C560.17,21.14,659.93,1,762.77,1M762.77,0C341.5,0,0,341.5,0,762.77s341.5,762.77,762.77,762.77,762.77-341.5,762.77-762.77S1184.03,0,762.77,0h0Z"/>
    </g>
    <g>
      <path class="cls-3" d="M1080.22,440.89l-686.88,384.16-62.27-93.84c-23.72-44.12-8.92-97.15,30.93-119.88l538.37-304.76c44.12-23.72,97.15-8.92,119.88,30.93l59.96,103.39Z"/>
      <path class="cls-3" d="M473.96,549.39l171.28,136.3"/>
      <path class="cls-3" d="M720.59,406.73l172.27,140.58"/>
      <path class="cls-3" d="M393.34,825.06l770.58-178.03,79.12,342.48c10.92,47.29-18.55,94.48-65.84,105.4l-599.34,138.47c-47.29,10.92-94.48-18.55-105.4-65.84l-79.12-342.48Z"/>
    </g>
  </g>
</svg>